<?xml version="1.0" standalone="no"?>
<!DOCTYPE svg PUBLIC "-//W3C//DTD SVG 20010904//EN"
 "http://www.w3.org/TR/2001/REC-SVG-20010904/DTD/svg10.dtd">
<svg version="1.0" xmlns="http://www.w3.org/2000/svg"
 width="500.000000pt" height="500.000000pt" viewBox="0 0 500.000000 500.000000"
 preserveAspectRatio="xMidYMid meet">

<g transform="translate(0.000000,500.000000) scale(0.100000,-0.100000)"
fill="#000000" stroke="none">
<path d="M2527 3083 c-3 -4 -7 -42 -8 -83 l-4 -75 57 0 c31 0 60 -4 64 -8 4
-4 29 -7 56 -7 58 0 68 24 13 34 -40 8 -40 6 -20 52 12 29 19 34 42 32 19 -2
28 2 31 13 2 12 -7 19 -35 25 -21 4 -42 8 -47 8 -5 1 -17 -26 -25 -59 -16 -60
-16 -60 -51 -57 -19 2 -36 5 -38 7 -2 2 -4 29 -5 61 -2 52 -16 79 -30 57z"/>
<path d="M2397 3073 c-3 -4 -8 -40 -12 -79 -8 -81 3 -100 37 -64 20 21 22 22
34 5 7 -9 17 -14 22 -11 18 11 20 57 4 73 -9 8 -23 29 -31 47 -15 30 -44 46
-54 29z"/>
<path d="M2204 3025 c-5 -13 19 -125 32 -147 3 -4 25 1 49 10 50 18 62 45 17
41 -38 -4 -47 4 -62 56 -14 50 -27 65 -36 40z"/>
<path d="M2785 2977 c-17 -34 -29 -69 -27 -77 1 -10 24 -20 58 -29 31 -7 57
-11 58 -9 6 9 36 117 36 129 0 12 -67 50 -88 49 -4 0 -21 -29 -37 -63z m77
-17 c-4 -42 -10 -50 -38 -50 -14 0 -24 3 -22 8 3 4 10 22 17 40 16 40 48 41
43 2z"/>
<path d="M2080 2968 c0 -7 7 -43 16 -80 18 -72 37 -88 54 -43 10 26 24 32 35
15 11 -18 26 0 22 28 -2 14 -12 31 -22 36 -11 6 -28 21 -38 34 -20 23 -67 30
-67 10z"/>
<path d="M2933 2908 c-37 -56 -39 -64 -25 -76 11 -8 19 -9 26 -2 18 18 39 12
33 -10 -3 -10 0 -24 7 -29 14 -12 66 31 66 54 0 9 7 27 16 40 16 25 13 55 -5
55 -6 0 -20 -18 -31 -40 -22 -42 -29 -47 -47 -29 -9 9 -6 21 12 49 13 21 21
41 18 44 -15 15 -31 2 -70 -56z"/>
<path d="M1913 2867 c-18 -12 -33 -27 -33 -34 0 -15 66 -115 83 -125 9 -5 28
7 55 35 l42 42 -47 53 c-25 28 -51 52 -57 51 -6 0 -26 -10 -43 -22z m67 -51
c23 -25 22 -56 -3 -56 -16 0 -50 57 -42 70 10 15 20 12 45 -14z"/>
<path d="M3078 2822 c-27 -26 -48 -54 -48 -62 1 -8 21 -30 45 -47 l44 -33 37
48 c21 26 42 53 48 60 6 9 -1 23 -24 47 -19 19 -39 35 -44 35 -6 0 -32 -22
-58 -48z m82 -19 c0 -14 -43 -63 -56 -63 -28 0 -27 30 1 54 24 21 55 25 55 9z"/>
<path d="M1810 2766 c0 -7 7 -19 15 -26 24 -20 17 -29 -14 -20 -21 6 -35 4
-48 -5 -17 -13 -14 -18 42 -69 33 -31 64 -56 68 -56 17 0 20 33 4 42 -30 16
-19 29 18 22 28 -5 36 -3 42 12 5 13 -7 29 -48 65 -55 49 -79 60 -79 35z"/>
<path d="M3188 2704 l-58 -45 32 -40 c24 -30 34 -36 44 -28 11 9 10 16 -3 36
-17 25 -16 26 31 67 43 37 51 56 22 56 -6 0 -37 -21 -68 -46z"/>
<path d="M2475 2490 c-3 -5 -1 -10 4 -10 6 0 11 5 11 10 0 6 -2 10 -4 10 -3 0
-8 -4 -11 -10z"/>
<path d="M2540 2490 c0 -5 5 -10 10 -10 6 0 10 5 10 10 0 6 -4 10 -10 10 -5 0
-10 -4 -10 -10z"/>
<path d="M2395 2443 c-97 -11 -95 -10 -95 -59 l0 -45 73 7 c39 4 75 11 78 16
4 7 9 6 13 0 5 -9 38 -10 89 -3 4 1 8 16 8 34 l2 32 6 -35 c5 -32 9 -35 44
-38 23 -2 37 1 37 9 0 8 4 8 13 1 6 -5 33 -13 60 -16 l47 -7 0 31 c0 67 -4 69
-168 69 -81 0 -154 2 -162 4 -8 2 -28 2 -45 0z m262 -55 c-3 -7 -5 -2 -5 12 0
14 2 19 5 13 2 -7 2 -19 0 -25z"/>
<path d="M2540 2320 c0 -5 5 -10 11 -10 5 0 7 5 4 10 -3 6 -8 10 -11 10 -2 0
-4 -4 -4 -10z"/>
<path d="M2430 2286 c-3 -2 -33 -6 -68 -9 -34 -2 -65 -7 -68 -10 -4 -3 -6 -47
-7 -97 0 -68 4 -94 14 -101 19 -12 231 -10 245 2 8 7 14 6 19 -1 3 -5 22 -10
41 -10 27 0 37 5 44 23 7 17 9 18 9 5 1 -14 10 -18 44 -18 23 0 48 4 56 9 21
13 29 180 10 192 -22 14 -109 11 -109 -3 0 -10 -2 -10 -8 -1 -5 8 -43 15 -95
18 -74 5 -88 4 -93 -10 -6 -14 -7 -14 -18 0 -6 9 -14 14 -16 11z"/>
<path d="M2485 2030 c-3 -5 -1 -10 4 -10 6 0 11 5 11 10 0 6 -2 10 -4 10 -3 0
-8 -4 -11 -10z"/>
<path d="M2555 2030 c-3 -5 -1 -10 4 -10 6 0 11 5 11 10 0 6 -2 10 -4 10 -3 0
-8 -4 -11 -10z"/>
<path d="M2705 2003 c-22 -3 -45 -9 -52 -15 -9 -7 -13 -7 -13 1 0 6 -11 11
-24 11 -47 0 -56 -10 -56 -56 0 -51 -4 -50 117 -33 43 6 81 16 85 22 13 20 9
77 -4 75 -7 -1 -31 -3 -53 -5z"/>
<path d="M2302 1964 c3 -37 5 -40 48 -51 25 -6 80 -12 123 -12 l77 -1 0 45 0
45 -87 0 c-49 0 -105 3 -126 7 l-38 6 3 -39z"/>
<path d="M2485 1850 c3 -5 8 -10 11 -10 2 0 4 5 4 10 0 6 -5 10 -11 10 -5 0
-7 -4 -4 -10z"/>
<path d="M2545 1850 c3 -5 8 -10 11 -10 2 0 4 5 4 10 0 6 -5 10 -11 10 -5 0
-7 -4 -4 -10z"/>
</g>
</svg>
